<mxfile host="app.diagrams.net" agent="Mozilla/5.0 (Macintosh; Intel Mac OS X 10_15_7) AppleWebKit/537.36 (KHTML, like Gecko) Chrome/134.0.0.0 Safari/537.36" version="26.1.0">
  <diagram name="Page-1" id="g2ThWMQIsWtiZmbWz--a">
    <mxGraphModel dx="1224" dy="814" grid="1" gridSize="10" guides="1" tooltips="1" connect="1" arrows="1" fold="1" page="1" pageScale="1" pageWidth="850" pageHeight="1100" math="0" shadow="0">
      <root>
        <mxCell id="0" />
        <mxCell id="1" parent="0" />
        <mxCell id="-WwBJoPwvWgI_VnnbhiP-7" style="edgeStyle=orthogonalEdgeStyle;rounded=1;orthogonalLoop=1;jettySize=auto;html=1;curved=0;strokeWidth=2;" edge="1" parent="1" source="-WwBJoPwvWgI_VnnbhiP-1" target="-WwBJoPwvWgI_VnnbhiP-20">
          <mxGeometry relative="1" as="geometry">
            <mxPoint x="280" y="120" as="targetPoint" />
          </mxGeometry>
        </mxCell>
        <mxCell id="-WwBJoPwvWgI_VnnbhiP-10" style="edgeStyle=orthogonalEdgeStyle;rounded=1;orthogonalLoop=1;jettySize=auto;html=1;entryX=0;entryY=0.5;entryDx=0;entryDy=0;curved=0;entryPerimeter=0;strokeWidth=2;" edge="1" parent="1" source="-WwBJoPwvWgI_VnnbhiP-1" target="-WwBJoPwvWgI_VnnbhiP-35">
          <mxGeometry relative="1" as="geometry">
            <Array as="points">
              <mxPoint x="160" y="159" />
              <mxPoint x="160" y="760" />
            </Array>
          </mxGeometry>
        </mxCell>
        <mxCell id="-WwBJoPwvWgI_VnnbhiP-11" style="edgeStyle=orthogonalEdgeStyle;rounded=1;orthogonalLoop=1;jettySize=auto;html=1;entryX=0;entryY=0.5;entryDx=0;entryDy=0;curved=0;entryPerimeter=0;strokeWidth=2;" edge="1" parent="1" source="-WwBJoPwvWgI_VnnbhiP-1" target="-WwBJoPwvWgI_VnnbhiP-39">
          <mxGeometry relative="1" as="geometry">
            <Array as="points">
              <mxPoint x="160" y="159" />
              <mxPoint x="160" y="959" />
            </Array>
          </mxGeometry>
        </mxCell>
        <mxCell id="-WwBJoPwvWgI_VnnbhiP-16" style="edgeStyle=orthogonalEdgeStyle;rounded=1;orthogonalLoop=1;jettySize=auto;html=1;entryX=0;entryY=0.5;entryDx=0;entryDy=0;curved=0;entryPerimeter=0;strokeWidth=2;" edge="1" parent="1" source="-WwBJoPwvWgI_VnnbhiP-1" target="-WwBJoPwvWgI_VnnbhiP-27">
          <mxGeometry relative="1" as="geometry">
            <Array as="points">
              <mxPoint x="160" y="159" />
              <mxPoint x="160" y="359" />
            </Array>
          </mxGeometry>
        </mxCell>
        <mxCell id="-WwBJoPwvWgI_VnnbhiP-17" style="edgeStyle=orthogonalEdgeStyle;rounded=1;orthogonalLoop=1;jettySize=auto;html=1;entryX=0;entryY=0.5;entryDx=0;entryDy=0;curved=0;entryPerimeter=0;strokeWidth=2;" edge="1" parent="1" source="-WwBJoPwvWgI_VnnbhiP-1" target="-WwBJoPwvWgI_VnnbhiP-31">
          <mxGeometry relative="1" as="geometry">
            <Array as="points">
              <mxPoint x="160" y="159" />
              <mxPoint x="160" y="559" />
            </Array>
          </mxGeometry>
        </mxCell>
        <mxCell id="-WwBJoPwvWgI_VnnbhiP-1" value="Student" style="sketch=0;outlineConnect=0;fontColor=#232F3E;gradientColor=none;fillColor=#232F3D;strokeColor=none;dashed=0;verticalLabelPosition=bottom;verticalAlign=top;align=center;html=1;fontSize=12;fontStyle=0;aspect=fixed;pointerEvents=1;shape=mxgraph.aws4.user;" vertex="1" parent="1">
          <mxGeometry x="40" y="120" width="78" height="78" as="geometry" />
        </mxCell>
        <mxCell id="-WwBJoPwvWgI_VnnbhiP-19" value="AWS Cloud" style="points=[[0,0],[0.25,0],[0.5,0],[0.75,0],[1,0],[1,0.25],[1,0.5],[1,0.75],[1,1],[0.75,1],[0.5,1],[0.25,1],[0,1],[0,0.75],[0,0.5],[0,0.25]];outlineConnect=0;gradientColor=none;html=1;whiteSpace=wrap;fontSize=12;fontStyle=0;container=1;pointerEvents=0;collapsible=0;recursiveResize=0;shape=mxgraph.aws4.group;grIcon=mxgraph.aws4.group_aws_cloud_alt;strokeColor=#232F3E;fillColor=none;verticalAlign=top;align=left;spacingLeft=30;fontColor=#232F3E;dashed=0;" vertex="1" parent="1">
          <mxGeometry x="200" y="40" width="640" height="1040" as="geometry" />
        </mxCell>
        <mxCell id="-WwBJoPwvWgI_VnnbhiP-18" value="Lang Portal" style="fillColor=none;strokeColor=#5A6C86;dashed=1;verticalAlign=top;fontStyle=0;fontColor=#5A6C86;whiteSpace=wrap;html=1;" vertex="1" parent="-WwBJoPwvWgI_VnnbhiP-19">
          <mxGeometry x="40" y="40" width="320" height="160" as="geometry" />
        </mxCell>
        <mxCell id="-WwBJoPwvWgI_VnnbhiP-23" style="edgeStyle=orthogonalEdgeStyle;rounded=0;orthogonalLoop=1;jettySize=auto;html=1;strokeWidth=2;" edge="1" parent="-WwBJoPwvWgI_VnnbhiP-19" source="-WwBJoPwvWgI_VnnbhiP-20" target="-WwBJoPwvWgI_VnnbhiP-22">
          <mxGeometry relative="1" as="geometry" />
        </mxCell>
        <mxCell id="-WwBJoPwvWgI_VnnbhiP-20" value="Frontend" style="sketch=0;points=[[0,0,0],[0.25,0,0],[0.5,0,0],[0.75,0,0],[1,0,0],[0,1,0],[0.25,1,0],[0.5,1,0],[0.75,1,0],[1,1,0],[0,0.25,0],[0,0.5,0],[0,0.75,0],[1,0.25,0],[1,0.5,0],[1,0.75,0]];outlineConnect=0;fontColor=#232F3E;fillColor=#ED7100;strokeColor=#ffffff;dashed=0;verticalLabelPosition=bottom;verticalAlign=top;align=center;html=1;fontSize=12;fontStyle=0;aspect=fixed;shape=mxgraph.aws4.resourceIcon;resIcon=mxgraph.aws4.compute;" vertex="1" parent="-WwBJoPwvWgI_VnnbhiP-19">
          <mxGeometry x="80" y="80" width="78" height="78" as="geometry" />
        </mxCell>
        <mxCell id="-WwBJoPwvWgI_VnnbhiP-22" value="Backend" style="sketch=0;points=[[0,0,0],[0.25,0,0],[0.5,0,0],[0.75,0,0],[1,0,0],[0,1,0],[0.25,1,0],[0.5,1,0],[0.75,1,0],[1,1,0],[0,0.25,0],[0,0.5,0],[0,0.75,0],[1,0.25,0],[1,0.5,0],[1,0.75,0]];outlineConnect=0;fontColor=#232F3E;fillColor=#ED7100;strokeColor=#ffffff;dashed=0;verticalLabelPosition=bottom;verticalAlign=top;align=center;html=1;fontSize=12;fontStyle=0;aspect=fixed;shape=mxgraph.aws4.resourceIcon;resIcon=mxgraph.aws4.compute;" vertex="1" parent="-WwBJoPwvWgI_VnnbhiP-19">
          <mxGeometry x="240" y="80" width="78" height="78" as="geometry" />
        </mxCell>
        <mxCell id="-WwBJoPwvWgI_VnnbhiP-25" value="Song Vocab" style="fillColor=none;strokeColor=#5A6C86;dashed=1;verticalAlign=top;fontStyle=0;fontColor=#5A6C86;whiteSpace=wrap;html=1;" vertex="1" parent="-WwBJoPwvWgI_VnnbhiP-19">
          <mxGeometry x="40" y="240" width="320" height="160" as="geometry" />
        </mxCell>
        <mxCell id="-WwBJoPwvWgI_VnnbhiP-26" style="edgeStyle=orthogonalEdgeStyle;rounded=0;orthogonalLoop=1;jettySize=auto;html=1;strokeWidth=2;" edge="1" parent="-WwBJoPwvWgI_VnnbhiP-19" source="-WwBJoPwvWgI_VnnbhiP-27" target="-WwBJoPwvWgI_VnnbhiP-28">
          <mxGeometry relative="1" as="geometry" />
        </mxCell>
        <mxCell id="-WwBJoPwvWgI_VnnbhiP-27" value="Frontend" style="sketch=0;points=[[0,0,0],[0.25,0,0],[0.5,0,0],[0.75,0,0],[1,0,0],[0,1,0],[0.25,1,0],[0.5,1,0],[0.75,1,0],[1,1,0],[0,0.25,0],[0,0.5,0],[0,0.75,0],[1,0.25,0],[1,0.5,0],[1,0.75,0]];outlineConnect=0;fontColor=#232F3E;fillColor=#ED7100;strokeColor=#ffffff;dashed=0;verticalLabelPosition=bottom;verticalAlign=top;align=center;html=1;fontSize=12;fontStyle=0;aspect=fixed;shape=mxgraph.aws4.resourceIcon;resIcon=mxgraph.aws4.compute;" vertex="1" parent="-WwBJoPwvWgI_VnnbhiP-19">
          <mxGeometry x="80" y="280" width="78" height="78" as="geometry" />
        </mxCell>
        <mxCell id="-WwBJoPwvWgI_VnnbhiP-28" value="Backend" style="sketch=0;points=[[0,0,0],[0.25,0,0],[0.5,0,0],[0.75,0,0],[1,0,0],[0,1,0],[0.25,1,0],[0.5,1,0],[0.75,1,0],[1,1,0],[0,0.25,0],[0,0.5,0],[0,0.75,0],[1,0.25,0],[1,0.5,0],[1,0.75,0]];outlineConnect=0;fontColor=#232F3E;fillColor=#ED7100;strokeColor=#ffffff;dashed=0;verticalLabelPosition=bottom;verticalAlign=top;align=center;html=1;fontSize=12;fontStyle=0;aspect=fixed;shape=mxgraph.aws4.resourceIcon;resIcon=mxgraph.aws4.compute;" vertex="1" parent="-WwBJoPwvWgI_VnnbhiP-19">
          <mxGeometry x="240" y="280" width="78" height="78" as="geometry" />
        </mxCell>
        <mxCell id="-WwBJoPwvWgI_VnnbhiP-29" value="Vocab Generator" style="fillColor=none;strokeColor=#5A6C86;dashed=1;verticalAlign=top;fontStyle=0;fontColor=#5A6C86;whiteSpace=wrap;html=1;" vertex="1" parent="-WwBJoPwvWgI_VnnbhiP-19">
          <mxGeometry x="40" y="440" width="320" height="160" as="geometry" />
        </mxCell>
        <mxCell id="-WwBJoPwvWgI_VnnbhiP-30" style="edgeStyle=orthogonalEdgeStyle;rounded=0;orthogonalLoop=1;jettySize=auto;html=1;strokeWidth=2;" edge="1" parent="-WwBJoPwvWgI_VnnbhiP-19" source="-WwBJoPwvWgI_VnnbhiP-31" target="-WwBJoPwvWgI_VnnbhiP-32">
          <mxGeometry relative="1" as="geometry" />
        </mxCell>
        <mxCell id="-WwBJoPwvWgI_VnnbhiP-31" value="Frontend" style="sketch=0;points=[[0,0,0],[0.25,0,0],[0.5,0,0],[0.75,0,0],[1,0,0],[0,1,0],[0.25,1,0],[0.5,1,0],[0.75,1,0],[1,1,0],[0,0.25,0],[0,0.5,0],[0,0.75,0],[1,0.25,0],[1,0.5,0],[1,0.75,0]];outlineConnect=0;fontColor=#232F3E;fillColor=#ED7100;strokeColor=#ffffff;dashed=0;verticalLabelPosition=bottom;verticalAlign=top;align=center;html=1;fontSize=12;fontStyle=0;aspect=fixed;shape=mxgraph.aws4.resourceIcon;resIcon=mxgraph.aws4.compute;" vertex="1" parent="-WwBJoPwvWgI_VnnbhiP-19">
          <mxGeometry x="80" y="480" width="78" height="78" as="geometry" />
        </mxCell>
        <mxCell id="-WwBJoPwvWgI_VnnbhiP-32" value="Backend" style="sketch=0;points=[[0,0,0],[0.25,0,0],[0.5,0,0],[0.75,0,0],[1,0,0],[0,1,0],[0.25,1,0],[0.5,1,0],[0.75,1,0],[1,1,0],[0,0.25,0],[0,0.5,0],[0,0.75,0],[1,0.25,0],[1,0.5,0],[1,0.75,0]];outlineConnect=0;fontColor=#232F3E;fillColor=#ED7100;strokeColor=#ffffff;dashed=0;verticalLabelPosition=bottom;verticalAlign=top;align=center;html=1;fontSize=12;fontStyle=0;aspect=fixed;shape=mxgraph.aws4.resourceIcon;resIcon=mxgraph.aws4.compute;" vertex="1" parent="-WwBJoPwvWgI_VnnbhiP-19">
          <mxGeometry x="240" y="480" width="78" height="78" as="geometry" />
        </mxCell>
        <mxCell id="-WwBJoPwvWgI_VnnbhiP-15" style="edgeStyle=orthogonalEdgeStyle;rounded=1;orthogonalLoop=1;jettySize=auto;html=1;curved=0;fillColor=#ffe6cc;strokeColor=#d79b00;strokeWidth=2;" edge="1" parent="-WwBJoPwvWgI_VnnbhiP-19" source="-WwBJoPwvWgI_VnnbhiP-28" target="-WwBJoPwvWgI_VnnbhiP-22">
          <mxGeometry relative="1" as="geometry">
            <mxPoint x="-80" y="80" as="targetPoint" />
            <Array as="points">
              <mxPoint x="400" y="300" />
              <mxPoint x="400" y="100" />
            </Array>
          </mxGeometry>
        </mxCell>
        <mxCell id="-WwBJoPwvWgI_VnnbhiP-13" style="edgeStyle=orthogonalEdgeStyle;rounded=1;orthogonalLoop=1;jettySize=auto;html=1;curved=0;fillColor=#ffe6cc;strokeColor=#d79b00;strokeWidth=2;" edge="1" parent="-WwBJoPwvWgI_VnnbhiP-19" source="-WwBJoPwvWgI_VnnbhiP-32" target="-WwBJoPwvWgI_VnnbhiP-22">
          <mxGeometry relative="1" as="geometry">
            <mxPoint x="-80" y="80" as="targetPoint" />
            <Array as="points">
              <mxPoint x="400" y="500" />
              <mxPoint x="400" y="100" />
            </Array>
          </mxGeometry>
        </mxCell>
        <mxCell id="-WwBJoPwvWgI_VnnbhiP-33" value="Writing Practice" style="fillColor=none;strokeColor=#5A6C86;dashed=1;verticalAlign=top;fontStyle=0;fontColor=#5A6C86;whiteSpace=wrap;html=1;" vertex="1" parent="-WwBJoPwvWgI_VnnbhiP-19">
          <mxGeometry x="40" y="640" width="320" height="160" as="geometry" />
        </mxCell>
        <mxCell id="-WwBJoPwvWgI_VnnbhiP-35" value="Frontend" style="sketch=0;points=[[0,0,0],[0.25,0,0],[0.5,0,0],[0.75,0,0],[1,0,0],[0,1,0],[0.25,1,0],[0.5,1,0],[0.75,1,0],[1,1,0],[0,0.25,0],[0,0.5,0],[0,0.75,0],[1,0.25,0],[1,0.5,0],[1,0.75,0]];outlineConnect=0;fontColor=#232F3E;fillColor=#ED7100;strokeColor=#ffffff;dashed=0;verticalLabelPosition=bottom;verticalAlign=top;align=center;html=1;fontSize=12;fontStyle=0;aspect=fixed;shape=mxgraph.aws4.resourceIcon;resIcon=mxgraph.aws4.compute;" vertex="1" parent="-WwBJoPwvWgI_VnnbhiP-19">
          <mxGeometry x="161" y="681" width="78" height="78" as="geometry" />
        </mxCell>
        <mxCell id="-WwBJoPwvWgI_VnnbhiP-37" value="Haiku Generator" style="fillColor=none;strokeColor=#5A6C86;dashed=1;verticalAlign=top;fontStyle=0;fontColor=#5A6C86;whiteSpace=wrap;html=1;" vertex="1" parent="-WwBJoPwvWgI_VnnbhiP-19">
          <mxGeometry x="40" y="840" width="320" height="160" as="geometry" />
        </mxCell>
        <mxCell id="-WwBJoPwvWgI_VnnbhiP-38" style="edgeStyle=orthogonalEdgeStyle;rounded=0;orthogonalLoop=1;jettySize=auto;html=1;strokeWidth=2;" edge="1" parent="-WwBJoPwvWgI_VnnbhiP-19" source="-WwBJoPwvWgI_VnnbhiP-39" target="-WwBJoPwvWgI_VnnbhiP-40">
          <mxGeometry relative="1" as="geometry" />
        </mxCell>
        <mxCell id="-WwBJoPwvWgI_VnnbhiP-39" value="Frontend" style="sketch=0;points=[[0,0,0],[0.25,0,0],[0.5,0,0],[0.75,0,0],[1,0,0],[0,1,0],[0.25,1,0],[0.5,1,0],[0.75,1,0],[1,1,0],[0,0.25,0],[0,0.5,0],[0,0.75,0],[1,0.25,0],[1,0.5,0],[1,0.75,0]];outlineConnect=0;fontColor=#232F3E;fillColor=#ED7100;strokeColor=#ffffff;dashed=0;verticalLabelPosition=bottom;verticalAlign=top;align=center;html=1;fontSize=12;fontStyle=0;aspect=fixed;shape=mxgraph.aws4.resourceIcon;resIcon=mxgraph.aws4.compute;" vertex="1" parent="-WwBJoPwvWgI_VnnbhiP-19">
          <mxGeometry x="80" y="880" width="78" height="78" as="geometry" />
        </mxCell>
        <mxCell id="-WwBJoPwvWgI_VnnbhiP-40" value="Backend" style="sketch=0;points=[[0,0,0],[0.25,0,0],[0.5,0,0],[0.75,0,0],[1,0,0],[0,1,0],[0.25,1,0],[0.5,1,0],[0.75,1,0],[1,1,0],[0,0.25,0],[0,0.5,0],[0,0.75,0],[1,0.25,0],[1,0.5,0],[1,0.75,0]];outlineConnect=0;fontColor=#232F3E;fillColor=#ED7100;strokeColor=#ffffff;dashed=0;verticalLabelPosition=bottom;verticalAlign=top;align=center;html=1;fontSize=12;fontStyle=0;aspect=fixed;shape=mxgraph.aws4.resourceIcon;resIcon=mxgraph.aws4.compute;" vertex="1" parent="-WwBJoPwvWgI_VnnbhiP-19">
          <mxGeometry x="240" y="880" width="78" height="78" as="geometry" />
        </mxCell>
        <mxCell id="-WwBJoPwvWgI_VnnbhiP-12" style="edgeStyle=orthogonalEdgeStyle;rounded=1;orthogonalLoop=1;jettySize=auto;html=1;curved=0;exitX=1;exitY=0.25;exitDx=0;exitDy=0;exitPerimeter=0;fillColor=#ffe6cc;strokeColor=#d79b00;strokeWidth=2;" edge="1" parent="-WwBJoPwvWgI_VnnbhiP-19" source="-WwBJoPwvWgI_VnnbhiP-35" target="-WwBJoPwvWgI_VnnbhiP-22">
          <mxGeometry relative="1" as="geometry">
            <mxPoint x="-80" y="80" as="targetPoint" />
            <Array as="points">
              <mxPoint x="400" y="701" />
              <mxPoint x="400" y="100" />
            </Array>
          </mxGeometry>
        </mxCell>
        <mxCell id="-WwBJoPwvWgI_VnnbhiP-41" value="Polly" style="sketch=0;points=[[0,0,0],[0.25,0,0],[0.5,0,0],[0.75,0,0],[1,0,0],[0,1,0],[0.25,1,0],[0.5,1,0],[0.75,1,0],[1,1,0],[0,0.25,0],[0,0.5,0],[0,0.75,0],[1,0.25,0],[1,0.5,0],[1,0.75,0]];outlineConnect=0;fontColor=#232F3E;fillColor=#01A88D;strokeColor=#ffffff;dashed=0;verticalLabelPosition=bottom;verticalAlign=top;align=center;html=1;fontSize=12;fontStyle=0;aspect=fixed;shape=mxgraph.aws4.resourceIcon;resIcon=mxgraph.aws4.polly;" vertex="1" parent="-WwBJoPwvWgI_VnnbhiP-19">
          <mxGeometry x="520" y="800" width="78" height="78" as="geometry" />
        </mxCell>
        <mxCell id="-WwBJoPwvWgI_VnnbhiP-42" style="edgeStyle=orthogonalEdgeStyle;rounded=1;orthogonalLoop=1;jettySize=auto;html=1;entryX=0;entryY=0.5;entryDx=0;entryDy=0;entryPerimeter=0;curved=0;strokeWidth=2;fillColor=#dae8fc;strokeColor=#6c8ebf;" edge="1" parent="-WwBJoPwvWgI_VnnbhiP-19" source="-WwBJoPwvWgI_VnnbhiP-40" target="-WwBJoPwvWgI_VnnbhiP-41">
          <mxGeometry relative="1" as="geometry">
            <Array as="points">
              <mxPoint x="480" y="940" />
              <mxPoint x="480" y="840" />
            </Array>
          </mxGeometry>
        </mxCell>
        <mxCell id="-WwBJoPwvWgI_VnnbhiP-43" style="edgeStyle=orthogonalEdgeStyle;rounded=1;orthogonalLoop=1;jettySize=auto;html=1;entryX=0;entryY=0.5;entryDx=0;entryDy=0;entryPerimeter=0;curved=0;fillColor=#dae8fc;strokeColor=#6c8ebf;strokeWidth=2;" edge="1" parent="-WwBJoPwvWgI_VnnbhiP-19" target="-WwBJoPwvWgI_VnnbhiP-41">
          <mxGeometry relative="1" as="geometry">
            <mxPoint x="239" y="741" as="sourcePoint" />
            <mxPoint x="520" y="840" as="targetPoint" />
            <Array as="points">
              <mxPoint x="480" y="741" />
              <mxPoint x="480" y="840" />
            </Array>
          </mxGeometry>
        </mxCell>
        <mxCell id="-WwBJoPwvWgI_VnnbhiP-44" value="Bedrock" style="sketch=0;points=[[0,0,0],[0.25,0,0],[0.5,0,0],[0.75,0,0],[1,0,0],[0,1,0],[0.25,1,0],[0.5,1,0],[0.75,1,0],[1,1,0],[0,0.25,0],[0,0.5,0],[0,0.75,0],[1,0.25,0],[1,0.5,0],[1,0.75,0]];outlineConnect=0;fontColor=#232F3E;fillColor=#01A88D;strokeColor=#ffffff;dashed=0;verticalLabelPosition=bottom;verticalAlign=top;align=center;html=1;fontSize=12;fontStyle=0;aspect=fixed;shape=mxgraph.aws4.resourceIcon;resIcon=mxgraph.aws4.bedrock;" vertex="1" parent="-WwBJoPwvWgI_VnnbhiP-19">
          <mxGeometry x="480" y="380" width="78" height="78" as="geometry" />
        </mxCell>
        <mxCell id="-WwBJoPwvWgI_VnnbhiP-45" style="edgeStyle=orthogonalEdgeStyle;rounded=1;orthogonalLoop=1;jettySize=auto;html=1;entryX=0;entryY=0.5;entryDx=0;entryDy=0;entryPerimeter=0;curved=0;fillColor=#d5e8d4;strokeColor=#82b366;strokeWidth=2;" edge="1" parent="-WwBJoPwvWgI_VnnbhiP-19" source="-WwBJoPwvWgI_VnnbhiP-22" target="-WwBJoPwvWgI_VnnbhiP-44">
          <mxGeometry relative="1" as="geometry">
            <Array as="points">
              <mxPoint x="440" y="120" />
              <mxPoint x="440" y="419" />
            </Array>
          </mxGeometry>
        </mxCell>
        <mxCell id="-WwBJoPwvWgI_VnnbhiP-46" style="edgeStyle=orthogonalEdgeStyle;rounded=1;orthogonalLoop=1;jettySize=auto;html=1;entryX=0;entryY=0.5;entryDx=0;entryDy=0;entryPerimeter=0;curved=0;strokeWidth=2;fillColor=#d5e8d4;strokeColor=#82b366;" edge="1" parent="-WwBJoPwvWgI_VnnbhiP-19" source="-WwBJoPwvWgI_VnnbhiP-32" target="-WwBJoPwvWgI_VnnbhiP-44">
          <mxGeometry relative="1" as="geometry">
            <Array as="points">
              <mxPoint x="440" y="520" />
              <mxPoint x="440" y="420" />
            </Array>
          </mxGeometry>
        </mxCell>
        <mxCell id="-WwBJoPwvWgI_VnnbhiP-48" style="edgeStyle=orthogonalEdgeStyle;rounded=1;orthogonalLoop=1;jettySize=auto;html=1;entryX=0;entryY=0.5;entryDx=0;entryDy=0;entryPerimeter=0;curved=0;fillColor=#d5e8d4;strokeColor=#82b366;strokeWidth=2;" edge="1" parent="-WwBJoPwvWgI_VnnbhiP-19" source="-WwBJoPwvWgI_VnnbhiP-40" target="-WwBJoPwvWgI_VnnbhiP-44">
          <mxGeometry relative="1" as="geometry">
            <Array as="points">
              <mxPoint x="440" y="919" />
              <mxPoint x="440" y="419" />
            </Array>
          </mxGeometry>
        </mxCell>
        <mxCell id="-WwBJoPwvWgI_VnnbhiP-49" style="edgeStyle=orthogonalEdgeStyle;rounded=1;orthogonalLoop=1;jettySize=auto;html=1;entryX=0;entryY=0.5;entryDx=0;entryDy=0;entryPerimeter=0;curved=0;strokeWidth=2;fillColor=#d5e8d4;strokeColor=#82b366;" edge="1" parent="-WwBJoPwvWgI_VnnbhiP-19" source="-WwBJoPwvWgI_VnnbhiP-35" target="-WwBJoPwvWgI_VnnbhiP-44">
          <mxGeometry relative="1" as="geometry">
            <Array as="points">
              <mxPoint x="440" y="720" />
              <mxPoint x="440" y="419" />
            </Array>
          </mxGeometry>
        </mxCell>
        <mxCell id="-WwBJoPwvWgI_VnnbhiP-50" style="edgeStyle=orthogonalEdgeStyle;rounded=1;orthogonalLoop=1;jettySize=auto;html=1;entryX=0;entryY=0.5;entryDx=0;entryDy=0;entryPerimeter=0;curved=0;fillColor=#d5e8d4;strokeColor=#82b366;strokeWidth=2;" edge="1" parent="-WwBJoPwvWgI_VnnbhiP-19" source="-WwBJoPwvWgI_VnnbhiP-28" target="-WwBJoPwvWgI_VnnbhiP-44">
          <mxGeometry relative="1" as="geometry">
            <Array as="points">
              <mxPoint x="440" y="319" />
              <mxPoint x="440" y="420" />
            </Array>
          </mxGeometry>
        </mxCell>
      </root>
    </mxGraphModel>
  </diagram>
</mxfile>
